<svg width="8" height="12" viewBox="0 0 8 12" fill="none" xmlns="http://www.w3.org/2000/svg">
<path fill-rule="evenodd" clip-rule="evenodd" d="M0.167835 0.135578C0.220903 0.092602 0.283944 0.0585049 0.35335 0.0352401C0.422755 0.0119754 0.49716 0 0.572304 0C0.647447 0 0.721852 0.0119754 0.791258 0.0352401C0.860663 0.0585049 0.923705 0.092602 0.976772 0.135578L7.83216 5.67339C7.88537 5.71626 7.92758 5.76718 7.95638 5.82325C7.98518 5.87932 8 5.93942 8 6.00012C8 6.06082 7.98518 6.12093 7.95638 6.17699C7.92758 6.23306 7.88537 6.28398 7.83216 6.32685L0.976772 11.8647C0.8695 11.9513 0.724009 12 0.572304 12C0.420599 12 0.275107 11.9513 0.167835 11.8647C0.0605638 11.778 0.000299105 11.6605 0.000299105 11.5379C0.000299105 11.4154 0.0605638 11.2979 0.167835 11.2112L6.6199 6.00012L0.167835 0.78904C0.114634 0.746172 0.0724241 0.695247 0.0436241 0.639181C0.0148241 0.583115 0 0.52301 0 0.462309C0 0.401608 0.0148241 0.341503 0.0436241 0.285438C0.0724241 0.229372 0.114634 0.178446 0.167835 0.135578Z" fill="#333333"/>
</svg>
