<svg width="32" height="30" viewBox="0 0 32 30" fill="none" xmlns="http://www.w3.org/2000/svg">
<path fill-rule="evenodd" clip-rule="evenodd" d="M3.20105 26.7374V12.5996H5.3342V26.7374C5.3342 27.0259 5.44657 27.3025 5.6466 27.5064C5.84662 27.7104 6.11791 27.825 6.40078 27.825H25.5992C25.882 27.825 26.1533 27.7104 26.3533 27.5064C26.5534 27.3025 26.6657 27.0259 26.6657 26.7374V12.5996H28.7989V26.7374C28.7989 27.6027 28.4618 28.4326 27.8617 29.0444C27.2616 29.6563 26.4478 30 25.5992 30H6.40078C5.55216 30 4.7383 29.6563 4.13823 29.0444C3.53816 28.4326 3.20105 27.6027 3.20105 26.7374ZM26.6657 2.81189V10.4246L22.3994 6.07447V2.81189C22.3994 2.52346 22.5118 2.24684 22.7118 2.04289C22.9118 1.83894 23.1831 1.72437 23.466 1.72437H25.5992C25.882 1.72437 26.1533 1.83894 26.3533 2.04289C26.5534 2.24684 26.6657 2.52346 26.6657 2.81189Z" fill="#F5F9F9"/>
<path fill-rule="evenodd" clip-rule="evenodd" d="M14.4919 0.636825C14.8919 0.229066 15.4344 0 16 0C16.5656 0 17.1081 0.229066 17.5081 0.636825L31.6872 15.0922C31.8875 15.2964 32 15.5734 32 15.8622C32 16.151 31.8875 16.4279 31.6872 16.6321C31.4869 16.8364 31.2153 16.9511 30.9321 16.9511C30.6488 16.9511 30.3772 16.8364 30.1769 16.6321L16 2.17459L1.82306 16.6321C1.62279 16.8364 1.35116 16.9511 1.06792 16.9511C0.784693 16.9511 0.513062 16.8364 0.312788 16.6321C0.112513 16.4279 0 16.151 0 15.8622C0 15.5734 0.112513 15.2964 0.312788 15.0922L14.4919 0.636825Z" fill="#F5F9F9"/>
</svg>
