<svg width="178" height="108" viewBox="0 0 178 108" fill="none" xmlns="http://www.w3.org/2000/svg">
<g filter="url(#filter0_d_4_698)">
<rect x="4" y="3" width="170" height="100" rx="10" fill="white"/>
<rect x="4.5" y="3.5" width="169" height="99" rx="9.5" stroke="#666666" stroke-dasharray="12 12"/>
</g>
<path d="M102 48C102 48.5304 101.789 49.0391 101.414 49.4142C101.039 49.7893 100.53 50 100 50H76C75.4696 50 74.9609 49.7893 74.5858 49.4142C74.2107 49.0391 74 48.5304 74 48V36C74 35.4696 74.2107 34.9609 74.5858 34.5858C74.9609 34.2107 75.4696 34 76 34H78.344C79.9345 33.9991 81.4595 33.3668 82.584 32.242L84.244 30.586C84.618 30.2119 85.125 30.0012 85.654 30H90.342C90.8724 30.0001 91.381 30.2109 91.756 30.586L93.412 32.242C93.9693 32.7994 94.6309 33.2416 95.3591 33.5432C96.0873 33.8449 96.8678 34.0001 97.656 34H100C100.53 34 101.039 34.2107 101.414 34.5858C101.789 34.9609 102 35.4696 102 36V48ZM76 32C74.9391 32 73.9217 32.4214 73.1716 33.1716C72.4214 33.9217 72 34.9391 72 36V48C72 49.0609 72.4214 50.0783 73.1716 50.8284C73.9217 51.5786 74.9391 52 76 52H100C101.061 52 102.078 51.5786 102.828 50.8284C103.579 50.0783 104 49.0609 104 48V36C104 34.9391 103.579 33.9217 102.828 33.1716C102.078 32.4214 101.061 32 100 32H97.656C96.5952 31.9998 95.578 31.5782 94.828 30.828L93.172 29.172C92.422 28.4218 91.4048 28.0002 90.344 28H85.656C84.5952 28.0002 83.578 28.4218 82.828 29.172L81.172 30.828C80.422 31.5782 79.4048 31.9998 78.344 32H76Z" fill="#666666"/>
<path d="M88 46C86.6739 46 85.4021 45.4732 84.4645 44.5355C83.5268 43.5979 83 42.3261 83 41C83 39.6739 83.5268 38.4021 84.4645 37.4645C85.4021 36.5268 86.6739 36 88 36C89.3261 36 90.5979 36.5268 91.5355 37.4645C92.4732 38.4021 93 39.6739 93 41C93 42.3261 92.4732 43.5979 91.5355 44.5355C90.5979 45.4732 89.3261 46 88 46ZM88 48C89.8565 48 91.637 47.2625 92.9497 45.9497C94.2625 44.637 95 42.8565 95 41C95 39.1435 94.2625 37.363 92.9497 36.0503C91.637 34.7375 89.8565 34 88 34C86.1435 34 84.363 34.7375 83.0503 36.0503C81.7375 37.363 81 39.1435 81 41C81 42.8565 81.7375 44.637 83.0503 45.9497C84.363 47.2625 86.1435 48 88 48ZM78 37C78 37.2652 77.8946 37.5196 77.7071 37.7071C77.5196 37.8946 77.2652 38 77 38C76.7348 38 76.4804 37.8946 76.2929 37.7071C76.1054 37.5196 76 37.2652 76 37C76 36.7348 76.1054 36.4804 76.2929 36.2929C76.4804 36.1054 76.7348 36 77 36C77.2652 36 77.5196 36.1054 77.7071 36.2929C77.8946 36.4804 78 36.7348 78 37Z" fill="#666666"/>
<path d="M29.0117 74.7207C29.0117 75.4746 28.7383 76.0625 28.1914 76.4844C27.6445 76.9062 26.9023 77.1172 25.9648 77.1172C24.9492 77.1172 24.168 76.9863 23.6211 76.7246V75.7637C23.9727 75.9121 24.3555 76.0293 24.7695 76.1152C25.1836 76.2012 25.5938 76.2441 26 76.2441C26.6641 76.2441 27.1641 76.1191 27.5 75.8691C27.8359 75.6152 28.0039 75.2637 28.0039 74.8145C28.0039 74.5176 27.9434 74.2754 27.8223 74.0879C27.7051 73.8965 27.5059 73.7207 27.2246 73.5605C26.9473 73.4004 26.5234 73.2188 25.9531 73.0156C25.1562 72.7305 24.5859 72.3926 24.2422 72.002C23.9023 71.6113 23.7324 71.1016 23.7324 70.4727C23.7324 69.8125 23.9805 69.2871 24.4766 68.8965C24.9727 68.5059 25.6289 68.3105 26.4453 68.3105C27.2969 68.3105 28.0801 68.4668 28.7949 68.7793L28.4844 69.6465C27.7773 69.3496 27.0898 69.2012 26.4219 69.2012C25.8945 69.2012 25.4824 69.3145 25.1855 69.541C24.8887 69.7676 24.7402 70.082 24.7402 70.4844C24.7402 70.7812 24.7949 71.0254 24.9043 71.2168C25.0137 71.4043 25.1973 71.5781 25.4551 71.7383C25.7168 71.8945 26.1152 72.0684 26.6504 72.2598C27.5488 72.5801 28.166 72.9238 28.502 73.291C28.8418 73.6582 29.0117 74.1348 29.0117 74.7207ZM33.3301 77.1172C32.3809 77.1172 31.6309 76.8281 31.0801 76.25C30.5332 75.6719 30.2598 74.8691 30.2598 73.8418C30.2598 72.8066 30.5137 71.9844 31.0215 71.375C31.5332 70.7656 32.2188 70.4609 33.0781 70.4609C33.8828 70.4609 34.5195 70.7266 34.9883 71.2578C35.457 71.7852 35.6914 72.4824 35.6914 73.3496V73.9648H31.2676C31.2871 74.7188 31.4766 75.291 31.8359 75.6816C32.1992 76.0723 32.709 76.2676 33.3652 76.2676C34.0566 76.2676 34.7402 76.123 35.416 75.834V76.7012C35.0723 76.8496 34.7461 76.9551 34.4375 77.0176C34.1328 77.084 33.7637 77.1172 33.3301 77.1172ZM33.0664 71.2754C32.5508 71.2754 32.1387 71.4434 31.8301 71.7793C31.5254 72.1152 31.3457 72.5801 31.291 73.1738H34.6484C34.6484 72.5605 34.5117 72.0918 34.2383 71.7676C33.9648 71.4395 33.5742 71.2754 33.0664 71.2754ZM38.3281 77H37.3555V67.8828H38.3281V77ZM43.1035 77.1172C42.1543 77.1172 41.4043 76.8281 40.8535 76.25C40.3066 75.6719 40.0332 74.8691 40.0332 73.8418C40.0332 72.8066 40.2871 71.9844 40.7949 71.375C41.3066 70.7656 41.9922 70.4609 42.8516 70.4609C43.6562 70.4609 44.293 70.7266 44.7617 71.2578C45.2305 71.7852 45.4648 72.4824 45.4648 73.3496V73.9648H41.041C41.0605 74.7188 41.25 75.291 41.6094 75.6816C41.9727 76.0723 42.4824 76.2676 43.1387 76.2676C43.8301 76.2676 44.5137 76.123 45.1895 75.834V76.7012C44.8457 76.8496 44.5195 76.9551 44.2109 77.0176C43.9062 77.084 43.5371 77.1172 43.1035 77.1172ZM42.8398 71.2754C42.3242 71.2754 41.9121 71.4434 41.6035 71.7793C41.2988 72.1152 41.1191 72.5801 41.0645 73.1738H44.4219C44.4219 72.5605 44.2852 72.0918 44.0117 71.7676C43.7383 71.4395 43.3477 71.2754 42.8398 71.2754ZM49.6953 77.1172C48.7656 77.1172 48.0449 76.832 47.5332 76.2617C47.0254 75.6875 46.7715 74.877 46.7715 73.8301C46.7715 72.7559 47.0293 71.9258 47.5449 71.3398C48.0645 70.7539 48.8027 70.4609 49.7598 70.4609C50.0684 70.4609 50.377 70.4941 50.6855 70.5605C50.9941 70.627 51.2363 70.7051 51.4121 70.7949L51.1133 71.6211C50.8984 71.5352 50.6641 71.4648 50.4102 71.4102C50.1562 71.3516 49.9316 71.3223 49.7363 71.3223C48.4316 71.3223 47.7793 72.1543 47.7793 73.8184C47.7793 74.6074 47.9375 75.2129 48.2539 75.6348C48.5742 76.0566 49.0469 76.2676 49.6719 76.2676C50.207 76.2676 50.7559 76.1523 51.3184 75.9219V76.7832C50.8887 77.0059 50.3477 77.1172 49.6953 77.1172ZM53.8203 77H52.8477V70.5781H53.8203V77ZM52.7656 68.8379C52.7656 68.6152 52.8203 68.4531 52.9297 68.3516C53.0391 68.2461 53.1758 68.1934 53.3398 68.1934C53.4961 68.1934 53.6309 68.2461 53.7441 68.3516C53.8574 68.457 53.9141 68.6191 53.9141 68.8379C53.9141 69.0566 53.8574 69.2207 53.7441 69.3301C53.6309 69.4355 53.4961 69.4883 53.3398 69.4883C53.1758 69.4883 53.0391 69.4355 52.9297 69.3301C52.8203 69.2207 52.7656 69.0566 52.7656 68.8379ZM61.4258 73.7832C61.4258 74.8301 61.1621 75.6484 60.6348 76.2383C60.1074 76.8242 59.3789 77.1172 58.4492 77.1172C57.875 77.1172 57.3652 76.9824 56.9199 76.7129C56.4746 76.4434 56.1309 76.0566 55.8887 75.5527C55.6465 75.0488 55.5254 74.459 55.5254 73.7832C55.5254 72.7363 55.7871 71.9219 56.3105 71.3398C56.834 70.7539 57.5605 70.4609 58.4902 70.4609C59.3887 70.4609 60.1016 70.7598 60.6289 71.3574C61.1602 71.9551 61.4258 72.7637 61.4258 73.7832ZM56.5332 73.7832C56.5332 74.6035 56.6973 75.2285 57.0254 75.6582C57.3535 76.0879 57.8359 76.3027 58.4727 76.3027C59.1094 76.3027 59.5918 76.0898 59.9199 75.6641C60.252 75.2344 60.418 74.6074 60.418 73.7832C60.418 72.9668 60.252 72.3477 59.9199 71.9258C59.5918 71.5 59.1055 71.2871 58.4609 71.2871C57.8242 71.2871 57.3438 71.4961 57.0195 71.9141C56.6953 72.332 56.5332 72.9551 56.5332 73.7832ZM67.5312 77V72.8457C67.5312 72.3223 67.4121 71.9316 67.1738 71.6738C66.9355 71.416 66.5625 71.2871 66.0547 71.2871C65.3828 71.2871 64.8906 71.4688 64.5781 71.832C64.2656 72.1953 64.1094 72.7949 64.1094 73.6309V77H63.1367V70.5781H63.9277L64.0859 71.457H64.1328C64.332 71.1406 64.6113 70.8965 64.9707 70.7246C65.3301 70.5488 65.7305 70.4609 66.1719 70.4609C66.9453 70.4609 67.5273 70.6484 67.918 71.0234C68.3086 71.3945 68.5039 71.9902 68.5039 72.8105V77H67.5312ZM73.2207 77.1172C72.2715 77.1172 71.5215 76.8281 70.9707 76.25C70.4238 75.6719 70.1504 74.8691 70.1504 73.8418C70.1504 72.8066 70.4043 71.9844 70.9121 71.375C71.4238 70.7656 72.1094 70.4609 72.9688 70.4609C73.7734 70.4609 74.4102 70.7266 74.8789 71.2578C75.3477 71.7852 75.582 72.4824 75.582 73.3496V73.9648H71.1582C71.1777 74.7188 71.3672 75.291 71.7266 75.6816C72.0898 76.0723 72.5996 76.2676 73.2559 76.2676C73.9473 76.2676 74.6309 76.123 75.3066 75.834V76.7012C74.9629 76.8496 74.6367 76.9551 74.3281 77.0176C74.0234 77.084 73.6543 77.1172 73.2207 77.1172ZM72.957 71.2754C72.4414 71.2754 72.0293 71.4434 71.7207 71.7793C71.416 72.1152 71.2363 72.5801 71.1816 73.1738H74.5391C74.5391 72.5605 74.4023 72.0918 74.1289 71.7676C73.8555 71.4395 73.4648 71.2754 72.957 71.2754ZM81.2773 70.5781V74.7441C81.2773 75.2676 81.3965 75.6582 81.6348 75.916C81.873 76.1738 82.2461 76.3027 82.7539 76.3027C83.4258 76.3027 83.916 76.1191 84.2246 75.752C84.5371 75.3848 84.6934 74.7852 84.6934 73.9531V70.5781H85.666V77H84.8633L84.7227 76.1387H84.6699C84.4707 76.4551 84.1934 76.6973 83.8379 76.8652C83.4863 77.0332 83.084 77.1172 82.6309 77.1172C81.8496 77.1172 81.2637 76.9316 80.873 76.5605C80.4863 76.1895 80.293 75.5957 80.293 74.7793V70.5781H81.2773ZM95.9199 77V72.8223C95.9199 72.3105 95.8105 71.9277 95.5918 71.6738C95.373 71.416 95.0332 71.2871 94.5723 71.2871C93.9668 71.2871 93.5195 71.4609 93.2305 71.8086C92.9414 72.1562 92.7969 72.6914 92.7969 73.4141V77H91.8242V72.8223C91.8242 72.3105 91.7148 71.9277 91.4961 71.6738C91.2773 71.416 90.9355 71.2871 90.4707 71.2871C89.8613 71.2871 89.4141 71.4707 89.1289 71.8379C88.8477 72.2012 88.707 72.7988 88.707 73.6309V77H87.7344V70.5781H88.5254L88.6836 71.457H88.7305C88.9141 71.1445 89.1719 70.9004 89.5039 70.7246C89.8398 70.5488 90.2148 70.4609 90.6289 70.4609C91.6328 70.4609 92.2891 70.8242 92.5977 71.5508H92.6445C92.8359 71.2148 93.1133 70.9492 93.4766 70.7539C93.8398 70.5586 94.2539 70.4609 94.7188 70.4609C95.4453 70.4609 95.9883 70.6484 96.3477 71.0234C96.7109 71.3945 96.8926 71.9902 96.8926 72.8105V77H95.9199ZM102.852 77L102.658 76.0859H102.611C102.291 76.4883 101.971 76.7617 101.65 76.9062C101.334 77.0469 100.938 77.1172 100.461 77.1172C99.8242 77.1172 99.3242 76.9531 98.9609 76.625C98.6016 76.2969 98.4219 75.8301 98.4219 75.2246C98.4219 73.9277 99.459 73.248 101.533 73.1855L102.623 73.1504V72.752C102.623 72.248 102.514 71.877 102.295 71.6387C102.08 71.3965 101.734 71.2754 101.258 71.2754C100.723 71.2754 100.117 71.4395 99.4414 71.7676L99.1426 71.0234C99.459 70.8516 99.8047 70.7168 100.18 70.6191C100.559 70.5215 100.938 70.4727 101.316 70.4727C102.082 70.4727 102.648 70.6426 103.016 70.9824C103.387 71.3223 103.572 71.8672 103.572 72.6172V77H102.852ZM100.654 76.3145C101.26 76.3145 101.734 76.1484 102.078 75.8164C102.426 75.4844 102.6 75.0195 102.6 74.4219V73.8418L101.627 73.8828C100.854 73.9102 100.295 74.0312 99.9512 74.2461C99.6113 74.457 99.4414 74.7871 99.4414 75.2363C99.4414 75.5879 99.5469 75.8555 99.7578 76.0391C99.9727 76.2227 100.271 76.3145 100.654 76.3145ZM109.672 77H108.699V70.5781H109.672V77ZM108.617 68.8379C108.617 68.6152 108.672 68.4531 108.781 68.3516C108.891 68.2461 109.027 68.1934 109.191 68.1934C109.348 68.1934 109.482 68.2461 109.596 68.3516C109.709 68.457 109.766 68.6191 109.766 68.8379C109.766 69.0566 109.709 69.2207 109.596 69.3301C109.482 69.4355 109.348 69.4883 109.191 69.4883C109.027 69.4883 108.891 69.4355 108.781 69.3301C108.672 69.2207 108.617 69.0566 108.617 68.8379ZM119.92 77V72.8223C119.92 72.3105 119.811 71.9277 119.592 71.6738C119.373 71.416 119.033 71.2871 118.572 71.2871C117.967 71.2871 117.52 71.4609 117.23 71.8086C116.941 72.1562 116.797 72.6914 116.797 73.4141V77H115.824V72.8223C115.824 72.3105 115.715 71.9277 115.496 71.6738C115.277 71.416 114.936 71.2871 114.471 71.2871C113.861 71.2871 113.414 71.4707 113.129 71.8379C112.848 72.2012 112.707 72.7988 112.707 73.6309V77H111.734V70.5781H112.525L112.684 71.457H112.73C112.914 71.1445 113.172 70.9004 113.504 70.7246C113.84 70.5488 114.215 70.4609 114.629 70.4609C115.633 70.4609 116.289 70.8242 116.598 71.5508H116.645C116.836 71.2148 117.113 70.9492 117.477 70.7539C117.84 70.5586 118.254 70.4609 118.719 70.4609C119.445 70.4609 119.988 70.6484 120.348 71.0234C120.711 71.3945 120.893 71.9902 120.893 72.8105V77H119.92ZM126.852 77L126.658 76.0859H126.611C126.291 76.4883 125.971 76.7617 125.65 76.9062C125.334 77.0469 124.938 77.1172 124.461 77.1172C123.824 77.1172 123.324 76.9531 122.961 76.625C122.602 76.2969 122.422 75.8301 122.422 75.2246C122.422 73.9277 123.459 73.248 125.533 73.1855L126.623 73.1504V72.752C126.623 72.248 126.514 71.877 126.295 71.6387C126.08 71.3965 125.734 71.2754 125.258 71.2754C124.723 71.2754 124.117 71.4395 123.441 71.7676L123.143 71.0234C123.459 70.8516 123.805 70.7168 124.18 70.6191C124.559 70.5215 124.938 70.4727 125.316 70.4727C126.082 70.4727 126.648 70.6426 127.016 70.9824C127.387 71.3223 127.572 71.8672 127.572 72.6172V77H126.852ZM124.654 76.3145C125.26 76.3145 125.734 76.1484 126.078 75.8164C126.426 75.4844 126.6 75.0195 126.6 74.4219V73.8418L125.627 73.8828C124.854 73.9102 124.295 74.0312 123.951 74.2461C123.611 74.457 123.441 74.7871 123.441 75.2363C123.441 75.5879 123.547 75.8555 123.758 76.0391C123.973 76.2227 124.271 76.3145 124.654 76.3145ZM134.838 70.5781V71.1934L133.648 71.334C133.758 71.4707 133.855 71.6504 133.941 71.873C134.027 72.0918 134.07 72.3398 134.07 72.6172C134.07 73.2461 133.855 73.748 133.426 74.123C132.996 74.498 132.406 74.6855 131.656 74.6855C131.465 74.6855 131.285 74.6699 131.117 74.6387C130.703 74.8574 130.496 75.1328 130.496 75.4648C130.496 75.6406 130.568 75.7715 130.713 75.8574C130.857 75.9395 131.105 75.9805 131.457 75.9805H132.594C133.289 75.9805 133.822 76.127 134.193 76.4199C134.568 76.7129 134.756 77.1387 134.756 77.6973C134.756 78.4082 134.471 78.9492 133.9 79.3203C133.33 79.6953 132.498 79.8828 131.404 79.8828C130.564 79.8828 129.916 79.7266 129.459 79.4141C129.006 79.1016 128.779 78.6602 128.779 78.0898C128.779 77.6992 128.904 77.3613 129.154 77.0762C129.404 76.791 129.756 76.5977 130.209 76.4961C130.045 76.4219 129.906 76.3066 129.793 76.1504C129.684 75.9941 129.629 75.8125 129.629 75.6055C129.629 75.3711 129.691 75.166 129.816 74.9902C129.941 74.8145 130.139 74.6445 130.408 74.4805C130.076 74.3438 129.805 74.1113 129.594 73.7832C129.387 73.4551 129.283 73.0801 129.283 72.6582C129.283 71.9551 129.494 71.4141 129.916 71.0352C130.338 70.6523 130.936 70.4609 131.709 70.4609C132.045 70.4609 132.348 70.5 132.617 70.5781H134.838ZM129.717 78.0781C129.717 78.4258 129.863 78.6895 130.156 78.8691C130.449 79.0488 130.869 79.1387 131.416 79.1387C132.232 79.1387 132.836 79.0156 133.227 78.7695C133.621 78.5273 133.818 78.1973 133.818 77.7793C133.818 77.4316 133.711 77.1895 133.496 77.0527C133.281 76.9199 132.877 76.8535 132.283 76.8535H131.117C130.676 76.8535 130.332 76.959 130.086 77.1699C129.84 77.3809 129.717 77.6836 129.717 78.0781ZM130.244 72.6348C130.244 73.084 130.371 73.4238 130.625 73.6543C130.879 73.8848 131.232 74 131.686 74C132.635 74 133.109 73.5391 133.109 72.6172C133.109 71.6523 132.629 71.1699 131.668 71.1699C131.211 71.1699 130.859 71.293 130.613 71.5391C130.367 71.7852 130.244 72.1504 130.244 72.6348ZM138.869 77.1172C137.92 77.1172 137.17 76.8281 136.619 76.25C136.072 75.6719 135.799 74.8691 135.799 73.8418C135.799 72.8066 136.053 71.9844 136.561 71.375C137.072 70.7656 137.758 70.4609 138.617 70.4609C139.422 70.4609 140.059 70.7266 140.527 71.2578C140.996 71.7852 141.23 72.4824 141.23 73.3496V73.9648H136.807C136.826 74.7188 137.016 75.291 137.375 75.6816C137.738 76.0723 138.248 76.2676 138.904 76.2676C139.596 76.2676 140.279 76.123 140.955 75.834V76.7012C140.611 76.8496 140.285 76.9551 139.977 77.0176C139.672 77.084 139.303 77.1172 138.869 77.1172ZM138.605 71.2754C138.09 71.2754 137.678 71.4434 137.369 71.7793C137.064 72.1152 136.885 72.5801 136.83 73.1738H140.188C140.188 72.5605 140.051 72.0918 139.777 71.7676C139.504 71.4395 139.113 71.2754 138.605 71.2754ZM151.08 77V72.8223C151.08 72.3105 150.971 71.9277 150.752 71.6738C150.533 71.416 150.193 71.2871 149.732 71.2871C149.127 71.2871 148.68 71.4609 148.391 71.8086C148.102 72.1562 147.957 72.6914 147.957 73.4141V77H146.984V72.8223C146.984 72.3105 146.875 71.9277 146.656 71.6738C146.438 71.416 146.096 71.2871 145.631 71.2871C145.021 71.2871 144.574 71.4707 144.289 71.8379C144.008 72.2012 143.867 72.7988 143.867 73.6309V77H142.895V70.5781H143.686L143.844 71.457H143.891C144.074 71.1445 144.332 70.9004 144.664 70.7246C145 70.5488 145.375 70.4609 145.789 70.4609C146.793 70.4609 147.449 70.8242 147.758 71.5508H147.805C147.996 71.2148 148.273 70.9492 148.637 70.7539C149 70.5586 149.414 70.4609 149.879 70.4609C150.605 70.4609 151.148 70.6484 151.508 71.0234C151.871 71.3945 152.053 71.9902 152.053 72.8105V77H151.08Z" fill="#666666"/>
<defs>
<filter id="filter0_d_4_698" x="0" y="0" width="178" height="108" filterUnits="userSpaceOnUse" color-interpolation-filters="sRGB">
<feFlood flood-opacity="0" result="BackgroundImageFix"/>
<feColorMatrix in="SourceAlpha" type="matrix" values="0 0 0 0 0 0 0 0 0 0 0 0 0 0 0 0 0 0 127 0" result="hardAlpha"/>
<feOffset dy="1"/>
<feGaussianBlur stdDeviation="2"/>
<feComposite in2="hardAlpha" operator="out"/>
<feColorMatrix type="matrix" values="0 0 0 0 0 0 0 0 0 0 0 0 0 0 0 0 0 0 0.25 0"/>
<feBlend mode="normal" in2="BackgroundImageFix" result="effect1_dropShadow_4_698"/>
<feBlend mode="normal" in="SourceGraphic" in2="effect1_dropShadow_4_698" result="shape"/>
</filter>
</defs>
</svg>
