<svg width="22" height="22" viewBox="0 0 22 22" fill="none" xmlns="http://www.w3.org/2000/svg">
<path d="M11 20.625C8.44729 20.625 5.99913 19.6109 4.1941 17.8059C2.38906 16.0009 1.375 13.5527 1.375 11C1.375 8.44729 2.38906 5.99913 4.1941 4.1941C5.99913 2.38906 8.44729 1.375 11 1.375C13.5527 1.375 16.0009 2.38906 17.8059 4.1941C19.6109 5.99913 20.625 8.44729 20.625 11C20.625 13.5527 19.6109 16.0009 17.8059 17.8059C16.0009 19.6109 13.5527 20.625 11 20.625ZM11 22C13.9174 22 16.7153 20.8411 18.7782 18.7782C20.8411 16.7153 22 13.9174 22 11C22 8.08262 20.8411 5.28473 18.7782 3.22183C16.7153 1.15893 13.9174 0 11 0C8.08262 0 5.28473 1.15893 3.22183 3.22183C1.15893 5.28473 0 8.08262 0 11C0 13.9174 1.15893 16.7153 3.22183 18.7782C5.28473 20.8411 8.08262 22 11 22Z" fill="#333333"/>
<path d="M7.22588 7.95575C7.224 8.00015 7.23122 8.04447 7.2471 8.08598C7.26298 8.1275 7.28718 8.16532 7.31822 8.19713C7.34926 8.22894 7.38647 8.25407 7.42758 8.27096C7.46869 8.28786 7.51282 8.29616 7.55725 8.29537H8.69163C8.88138 8.29537 9.03263 8.14 9.05738 7.95162C9.18113 7.04962 9.79988 6.39238 10.9026 6.39238C11.8459 6.39238 12.7094 6.864 12.7094 7.99837C12.7094 8.8715 12.1951 9.273 11.3825 9.8835C10.4571 10.5559 9.72425 11.341 9.7765 12.6156L9.78063 12.914C9.78207 13.0042 9.81892 13.0902 9.88323 13.1535C9.94754 13.2168 10.0342 13.2523 10.1244 13.2522H11.2395C11.3307 13.2522 11.4181 13.216 11.4826 13.1516C11.547 13.0871 11.5833 12.9997 11.5833 12.9085V12.7641C11.5833 11.7769 11.9586 11.4895 12.972 10.7209C13.8094 10.0842 14.6825 9.3775 14.6825 7.89387C14.6825 5.81625 12.928 4.8125 11.0071 4.8125C9.265 4.8125 7.3565 5.62375 7.22588 7.95575ZM9.36675 15.8799C9.36675 16.6127 9.95113 17.1545 10.7555 17.1545C11.5929 17.1545 12.169 16.6127 12.169 15.8799C12.169 15.1209 11.5915 14.5874 10.7541 14.5874C9.95113 14.5874 9.36675 15.1209 9.36675 15.8799Z" fill="#333333"/>
</svg>
