<svg width="20" height="17" viewBox="0 0 20 17" fill="none" xmlns="http://www.w3.org/2000/svg">
<path d="M1.25 2.41516C2.35625 1.95266 3.9425 1.45391 5.485 1.29891C7.1475 1.13141 8.5575 1.37766 9.375 2.23891V14.4214C8.20625 13.7589 6.725 13.6677 5.35875 13.8052C3.88375 13.9552 2.39625 14.3814 1.25 14.8189V2.41516ZM10.625 2.23891C11.4425 1.37766 12.8525 1.13141 14.515 1.29891C16.0575 1.45391 17.6437 1.95266 18.75 2.41516V14.8189C17.6025 14.3814 16.1163 13.9539 14.6413 13.8064C13.2738 13.6677 11.7937 13.7577 10.625 14.4214V2.23891ZM10 1.10891C8.76875 0.050161 6.98375 -0.107339 5.35875 0.0551611C3.46625 0.246411 1.55625 0.895161 0.36625 1.43641C0.257061 1.48607 0.164469 1.5661 0.0995263 1.66695C0.0345834 1.7678 3.32143e-05 1.88521 0 2.00516L0 15.7552C2.89525e-05 15.8597 0.0262964 15.9626 0.0763964 16.0544C0.126496 16.1462 0.198827 16.224 0.286764 16.2806C0.3747 16.3371 0.475431 16.3708 0.579729 16.3783C0.684028 16.3859 0.788559 16.3672 0.88375 16.3239C1.98625 15.8239 3.7625 15.2227 5.48375 15.0489C7.245 14.8714 8.72125 15.1577 9.5125 16.1452C9.57106 16.2182 9.64527 16.2771 9.72965 16.3176C9.81402 16.358 9.90641 16.379 10 16.379C10.0936 16.379 10.186 16.358 10.2704 16.3176C10.3547 16.2771 10.4289 16.2182 10.4875 16.1452C11.2788 15.1577 12.755 14.8714 14.515 15.0489C16.2375 15.2227 18.015 15.8239 19.1163 16.3239C19.2114 16.3672 19.316 16.3859 19.4203 16.3783C19.5246 16.3708 19.6253 16.3371 19.7132 16.2806C19.8012 16.224 19.8735 16.1462 19.9236 16.0544C19.9737 15.9626 20 15.8597 20 15.7552V2.00516C20 1.88521 19.9654 1.7678 19.9005 1.66695C19.8355 1.5661 19.7429 1.48607 19.6337 1.43641C18.4438 0.895161 16.5338 0.246411 14.6413 0.0551611C13.0163 -0.108589 11.2312 0.050161 10 1.10891Z" fill="#333333"/>
</svg>
