<svg width="32" height="27" viewBox="0 0 32 27" fill="none" xmlns="http://www.w3.org/2000/svg">
<path d="M2 3.86426C3.77 3.12426 6.308 2.32626 8.776 2.07826C11.436 1.81026 13.692 2.20426 15 3.58226V23.0743C13.13 22.0143 10.76 21.8683 8.574 22.0883C6.214 22.3283 3.834 23.0103 2 23.7103V3.86426ZM17 3.58226C18.308 2.20426 20.564 1.81026 23.224 2.07826C25.692 2.32626 28.23 3.12426 30 3.86426V23.7103C28.164 23.0103 25.786 22.3263 23.426 22.0903C21.238 21.8683 18.87 22.0123 17 23.0743V3.58226ZM16 1.77426C14.03 0.0802577 11.174 -0.171742 8.574 0.0882577C5.546 0.394258 2.49 1.43226 0.586 2.29826C0.411298 2.37771 0.263151 2.50576 0.159242 2.66712C0.0553334 2.82848 5.31428e-05 3.01634 0 3.20826L0 25.2083C4.6324e-05 25.3756 0.0420743 25.5402 0.122234 25.6871C0.202394 25.8339 0.318123 25.9583 0.458822 26.0489C0.59952 26.1394 0.760689 26.1932 0.927567 26.2054C1.09444 26.2175 1.2617 26.1875 1.414 26.1183C3.178 25.3183 6.02 24.3563 8.774 24.0783C11.592 23.7943 13.954 24.2523 15.22 25.8323C15.3137 25.9491 15.4324 26.0433 15.5674 26.1081C15.7024 26.1729 15.8503 26.2065 16 26.2065C16.1497 26.2065 16.2976 26.1729 16.4326 26.1081C16.5676 26.0433 16.6863 25.9491 16.78 25.8323C18.046 24.2523 20.408 23.7943 23.224 24.0783C25.98 24.3563 28.824 25.3183 30.586 26.1183C30.7383 26.1875 30.9056 26.2175 31.0724 26.2054C31.2393 26.1932 31.4005 26.1394 31.5412 26.0489C31.6819 25.9583 31.7976 25.8339 31.8778 25.6871C31.9579 25.5402 32 25.3756 32 25.2083V3.20826C31.9999 3.01634 31.9447 2.82848 31.8408 2.66712C31.7368 2.50576 31.5887 2.37771 31.414 2.29826C29.51 1.43226 26.454 0.394258 23.426 0.0882577C20.826 -0.173742 17.97 0.0802577 16 1.77426Z" fill="#EC3F5F"/>
</svg>
