<svg width="32" height="24" viewBox="0 0 32 24" fill="none" xmlns="http://www.w3.org/2000/svg">
<path d="M30 20C30 20.5304 29.7893 21.0391 29.4142 21.4142C29.0391 21.7893 28.5304 22 28 22H4C3.46957 22 2.96086 21.7893 2.58579 21.4142C2.21071 21.0391 2 20.5304 2 20V8C2 7.46957 2.21071 6.96086 2.58579 6.58579C2.96086 6.21071 3.46957 6 4 6H6.344C7.93448 5.99913 9.45953 5.36681 10.584 4.242L12.244 2.586C12.618 2.21188 13.125 2.00117 13.654 2H18.342C18.8724 2.00011 19.381 2.2109 19.756 2.586L21.412 4.242C21.9693 4.79943 22.6309 5.2416 23.3591 5.54324C24.0873 5.84489 24.8678 6.00009 25.656 6H28C28.5304 6 29.0391 6.21071 29.4142 6.58579C29.7893 6.96086 30 7.46957 30 8V20ZM4 4C2.93913 4 1.92172 4.42143 1.17157 5.17157C0.421427 5.92172 0 6.93913 0 8L0 20C0 21.0609 0.421427 22.0783 1.17157 22.8284C1.92172 23.5786 2.93913 24 4 24H28C29.0609 24 30.0783 23.5786 30.8284 22.8284C31.5786 22.0783 32 21.0609 32 20V8C32 6.93913 31.5786 5.92172 30.8284 5.17157C30.0783 4.42143 29.0609 4 28 4H25.656C24.5952 3.99977 23.578 3.5782 22.828 2.828L21.172 1.172C20.422 0.421802 19.4048 0.00022655 18.344 0H13.656C12.5952 0.00022655 11.578 0.421802 10.828 1.172L9.172 2.828C8.42203 3.5782 7.40478 3.99977 6.344 4H4Z" fill="#666666"/>
<path d="M16 18C14.6739 18 13.4021 17.4732 12.4645 16.5355C11.5268 15.5979 11 14.3261 11 13C11 11.6739 11.5268 10.4021 12.4645 9.46447C13.4021 8.52678 14.6739 8 16 8C17.3261 8 18.5979 8.52678 19.5355 9.46447C20.4732 10.4021 21 11.6739 21 13C21 14.3261 20.4732 15.5979 19.5355 16.5355C18.5979 17.4732 17.3261 18 16 18ZM16 20C17.8565 20 19.637 19.2625 20.9497 17.9497C22.2625 16.637 23 14.8565 23 13C23 11.1435 22.2625 9.36301 20.9497 8.05025C19.637 6.7375 17.8565 6 16 6C14.1435 6 12.363 6.7375 11.0503 8.05025C9.7375 9.36301 9 11.1435 9 13C9 14.8565 9.7375 16.637 11.0503 17.9497C12.363 19.2625 14.1435 20 16 20ZM6 9C6 9.26522 5.89464 9.51957 5.70711 9.70711C5.51957 9.89464 5.26522 10 5 10C4.73478 10 4.48043 9.89464 4.29289 9.70711C4.10536 9.51957 4 9.26522 4 9C4 8.73478 4.10536 8.48043 4.29289 8.29289C4.48043 8.10536 4.73478 8 5 8C5.26522 8 5.51957 8.10536 5.70711 8.29289C5.89464 8.48043 6 8.73478 6 9Z" fill="#666666"/>
</svg>
