<svg width="20" height="17" viewBox="0 0 20 17" fill="none" xmlns="http://www.w3.org/2000/svg">
<path fill-rule="evenodd" clip-rule="evenodd" d="M9.45544 0.225968C9.52689 0.15434 9.61176 0.0975101 9.70521 0.0587348C9.79865 0.0199594 9.89883 0 10 0C10.1012 0 10.2013 0.0199594 10.2948 0.0587348C10.3882 0.0975101 10.4731 0.15434 10.5446 0.225968L19.7744 9.45584C19.9189 9.60027 20 9.79615 20 10.0004C20 10.2047 19.9189 10.4005 19.7744 10.545C19.63 10.6894 19.4341 10.7705 19.2299 10.7705C19.0256 10.7705 18.8297 10.6894 18.6853 10.545L10 1.85812L1.31469 10.545C1.17026 10.6894 0.974378 10.7705 0.770128 10.7705C0.565877 10.7705 0.369992 10.6894 0.225565 10.545C0.0811382 10.4005 0 10.2047 0 10.0004C0 9.79615 0.0811382 9.60027 0.225565 9.45584L9.45544 0.225968Z" fill="#333333"/>
<path fill-rule="evenodd" clip-rule="evenodd" d="M9.45544 6.37917C9.52689 6.30754 9.61176 6.25071 9.70521 6.21193C9.79865 6.17316 9.89883 6.1532 10 6.1532C10.1012 6.1532 10.2013 6.17316 10.2948 6.21193C10.3882 6.25071 10.4731 6.30754 10.5446 6.37917L19.7744 15.609C19.9189 15.7535 20 15.9494 20 16.1536C20 16.3579 19.9189 16.5537 19.7744 16.6982C19.63 16.8426 19.4341 16.9237 19.2299 16.9237C19.0256 16.9237 18.8297 16.8426 18.6853 16.6982L10 8.01132L1.31469 16.6982C1.17026 16.8426 0.974378 16.9237 0.770128 16.9237C0.565877 16.9237 0.369992 16.8426 0.225565 16.6982C0.0811382 16.5537 5.04719e-09 16.3579 0 16.1536C-5.04719e-09 15.9494 0.0811382 15.7535 0.225565 15.609L9.45544 6.37917Z" fill="#333333"/>
</svg>
