<svg width="30" height="25" viewBox="0 0 30 25" fill="none" xmlns="http://www.w3.org/2000/svg">
<path fill-rule="evenodd" clip-rule="evenodd" d="M0 23.1818C0 22.8202 0.143669 22.4733 0.3994 22.2176C0.655132 21.9618 1.00198 21.8182 1.36364 21.8182H28.6364C28.998 21.8182 29.3449 21.9618 29.6006 22.2176C29.8563 22.4733 30 22.8202 30 23.1818C30 23.5435 29.8563 23.8903 29.6006 24.1461C29.3449 24.4018 28.998 24.5455 28.6364 24.5455H1.36364C1.00198 24.5455 0.655132 24.4018 0.3994 24.1461C0.143669 23.8903 0 23.5435 0 23.1818ZM0 12.2727C0 11.9111 0.143669 11.5642 0.3994 11.3085C0.655132 11.0528 1.00198 10.9091 1.36364 10.9091H28.6364C28.998 10.9091 29.3449 11.0528 29.6006 11.3085C29.8563 11.5642 30 11.9111 30 12.2727C30 12.6344 29.8563 12.9812 29.6006 13.237C29.3449 13.4927 28.998 13.6364 28.6364 13.6364H1.36364C1.00198 13.6364 0.655132 13.4927 0.3994 13.237C0.143669 12.9812 0 12.6344 0 12.2727ZM0 1.36364C0 1.00198 0.143669 0.655132 0.3994 0.3994C0.655132 0.143669 1.00198 0 1.36364 0H28.6364C28.998 0 29.3449 0.143669 29.6006 0.3994C29.8563 0.655132 30 1.00198 30 1.36364C30 1.7253 29.8563 2.07214 29.6006 2.32787C29.3449 2.5836 28.998 2.72727 28.6364 2.72727H1.36364C1.00198 2.72727 0.655132 2.5836 0.3994 2.32787C0.143669 2.07214 0 1.7253 0 1.36364Z" fill="#F5F9F9"/>
</svg>
