<svg width="20" height="20" viewBox="0 0 20 20" fill="none" xmlns="http://www.w3.org/2000/svg">
<path d="M19.8008 1.96669C19.9284 2.09466 20 2.26798 20 2.44867C20 2.62936 19.9284 2.80268 19.8008 2.93065L18.3767 4.35611L15.646 1.62534L17.07 0.199883C17.1981 0.071898 17.3717 0 17.5527 0C17.7337 0 17.9074 0.071898 18.0354 0.199883L19.8008 1.96532V1.96669ZM17.4114 5.32007L14.6806 2.5893L5.37827 11.893C5.30312 11.9682 5.24655 12.0598 5.21305 12.1606L4.11392 15.4567C4.09399 15.5168 4.09116 15.5812 4.10575 15.6428C4.12034 15.7044 4.15177 15.7608 4.19654 15.8055C4.2413 15.8503 4.29764 15.8817 4.35924 15.8963C4.42084 15.9109 4.48529 15.9081 4.54538 15.8881L7.84142 14.789C7.94213 14.7559 8.03376 14.6998 8.10903 14.6252L17.4114 5.32144V5.32007Z" fill="#1E0D83"/>
<path fill-rule="evenodd" clip-rule="evenodd" d="M0 17.7505C0 18.2937 0.215779 18.8146 0.599868 19.1987C0.983956 19.5828 1.50489 19.7986 2.04808 19.7986H17.0673C17.6105 19.7986 18.1314 19.5828 18.5155 19.1987C18.8996 18.8146 19.1154 18.2937 19.1154 17.7505V9.55819C19.1154 9.37712 19.0434 9.20348 18.9154 9.07545C18.7874 8.94742 18.6137 8.87549 18.4327 8.87549C18.2516 8.87549 18.078 8.94742 17.9499 9.07545C17.8219 9.20348 17.75 9.37712 17.75 9.55819V17.7505C17.75 17.9316 17.6781 18.1052 17.55 18.2332C17.422 18.3613 17.2484 18.4332 17.0673 18.4332H2.04808C1.86701 18.4332 1.69337 18.3613 1.56534 18.2332C1.43731 18.1052 1.36538 17.9316 1.36538 17.7505V2.73127C1.36538 2.5502 1.43731 2.37656 1.56534 2.24853C1.69337 2.1205 1.86701 2.04857 2.04808 2.04857H10.9231C11.1041 2.04857 11.2778 1.97665 11.4058 1.84862C11.5338 1.72059 11.6058 1.54694 11.6058 1.36588C11.6058 1.18482 11.5338 1.01117 11.4058 0.883145C11.2778 0.755116 11.1041 0.683189 10.9231 0.683189H2.04808C1.50489 0.683189 0.983956 0.898968 0.599868 1.28306C0.215779 1.66715 0 2.18808 0 2.73127V17.7505Z" fill="#1E0D83"/>
</svg>
