<svg width="20" height="24" viewBox="0 0 20 24" fill="none" xmlns="http://www.w3.org/2000/svg">
<path d="M6.15387 8.46154C6.35789 8.46154 6.55354 8.54258 6.6978 8.68684C6.84206 8.8311 6.92311 9.02676 6.92311 9.23077V18.4615C6.92311 18.6656 6.84206 18.8612 6.6978 19.0055C6.55354 19.1497 6.35789 19.2308 6.15387 19.2308C5.94986 19.2308 5.7542 19.1497 5.60995 19.0055C5.46569 18.8612 5.38464 18.6656 5.38464 18.4615V9.23077C5.38464 9.02676 5.46569 8.8311 5.60995 8.68684C5.7542 8.54258 5.94986 8.46154 6.15387 8.46154ZM10 8.46154C10.204 8.46154 10.3997 8.54258 10.544 8.68684C10.6882 8.8311 10.7693 9.02676 10.7693 9.23077V18.4615C10.7693 18.6656 10.6882 18.8612 10.544 19.0055C10.3997 19.1497 10.204 19.2308 10 19.2308C9.79602 19.2308 9.60036 19.1497 9.4561 19.0055C9.31184 18.8612 9.2308 18.6656 9.2308 18.4615V9.23077C9.2308 9.02676 9.31184 8.8311 9.4561 8.68684C9.60036 8.54258 9.79602 8.46154 10 8.46154ZM14.6154 9.23077C14.6154 9.02676 14.5344 8.8311 14.3901 8.68684C14.2459 8.54258 14.0502 8.46154 13.8462 8.46154C13.6422 8.46154 13.4465 8.54258 13.3023 8.68684C13.158 8.8311 13.077 9.02676 13.077 9.23077V18.4615C13.077 18.6656 13.158 18.8612 13.3023 19.0055C13.4465 19.1497 13.6422 19.2308 13.8462 19.2308C14.0502 19.2308 14.2459 19.1497 14.3901 19.0055C14.5344 18.8612 14.6154 18.6656 14.6154 18.4615V9.23077Z" fill="#EC3F5F"/>
<path fill-rule="evenodd" clip-rule="evenodd" d="M20 4.61538C20 5.02341 19.8379 5.41472 19.5494 5.70324C19.2609 5.99176 18.8696 6.15385 18.4615 6.15385H17.6923V20C17.6923 20.8161 17.3681 21.5987 16.7911 22.1757C16.2141 22.7527 15.4314 23.0769 14.6154 23.0769H5.38462C4.56856 23.0769 3.78594 22.7527 3.2089 22.1757C2.63187 21.5987 2.30769 20.8161 2.30769 20V6.15385H1.53846C1.13044 6.15385 0.739122 5.99176 0.450605 5.70324C0.162087 5.41472 0 5.02341 0 4.61538V3.07692C0 2.6689 0.162087 2.27758 0.450605 1.98907C0.739122 1.70055 1.13044 1.53846 1.53846 1.53846H6.92308C6.92308 1.13044 7.08516 0.739122 7.37368 0.450605C7.6622 0.162087 8.05351 0 8.46154 0L11.5385 0C11.9465 0 12.3378 0.162087 12.6263 0.450605C12.9148 0.739122 13.0769 1.13044 13.0769 1.53846H18.4615C18.8696 1.53846 19.2609 1.70055 19.5494 1.98907C19.8379 2.27758 20 2.6689 20 3.07692V4.61538ZM4.02769 6.15385L3.84615 6.24462V20C3.84615 20.408 4.00824 20.7993 4.29676 21.0879C4.58528 21.3764 4.97659 21.5385 5.38462 21.5385H14.6154C15.0234 21.5385 15.4147 21.3764 15.7032 21.0879C15.9918 20.7993 16.1538 20.408 16.1538 20V6.24462L15.9723 6.15385H4.02769ZM1.53846 4.61538V3.07692H18.4615V4.61538H1.53846Z" fill="#EC3F5F"/>
</svg>
